<svg xmlns="http://www.w3.org/2000/svg" xmlns:xlink="http://www.w3.org/1999/xlink" version="1.1" x="0px" y="0px" viewBox="0 0 90 112.5" enable-background="new 0 0 90 90" xml:space="preserve"><g><path d="M51.82,60.441l-1.392,9.8l9.799-1.392l30.065-30.78c0,0-0.638-3.489-3.312-5.718c-2.675-2.228-5.779-2.674-5.779-2.674   L51.82,60.441z"/><path d="M66,82H4V8h45v13.695C49,23.321,50.572,25,52.198,25H66v17.667l4-3.917V22.142L51.751,4H3.242C1.616,4,0,5.323,0,6.949   v76.088C0,84.663,1.616,86,3.242,86h63.702C68.57,86,70,84.663,70,83.037V62.562l-4,4.354V82z M53,10.041l5.426,5.479L63.852,21H53   V10.041z"/><path d="M52.493,49.5c0-0.814-0.66-1.5-1.475-1.5h-37.75c-0.814,0-1.474,0.686-1.474,1.5s0.66,1.5,1.474,1.5h37.75   C51.833,51,52.493,50.314,52.493,49.5z"/><path d="M45.71,55H13.269c-0.814,0-1.474,0.278-1.474,1.5s0.66,1.5,1.474,1.5H45.71c0.814,0,1.475-0.278,1.475-1.5   S46.524,55,45.71,55z"/><path d="M13.269,64h27.132c0.814,0,1.475-0.686,1.475-1.5s-0.66-1.5-1.475-1.5H13.269c-0.814,0-1.474,0.686-1.474,1.5   S12.455,64,13.269,64z"/><path d="M13.269,70H45.71c0.814,0,1.475-0.278,1.475-1.5S46.524,67,45.71,67H13.269c-0.814,0-1.474,0.278-1.474,1.5   S12.455,70,13.269,70z"/><rect x="12" y="23" width="21" height="21"/></g><text x="0" y="105" fill="#000000" font-size="5px" font-weight="bold" font-family="'Helvetica Neue', Helvetica, Arial-Unicode, Arial, Sans-serif">Created by Mon Aguilar</text><text x="0" y="110" fill="#000000" font-size="5px" font-weight="bold" font-family="'Helvetica Neue', Helvetica, Arial-Unicode, Arial, Sans-serif">from the Noun Project</text></svg>