<?xml version="1.0" encoding="UTF-8"?>
<svg width="545px" height="240px" viewBox="0 0 545 240" version="1.1" xmlns="http://www.w3.org/2000/svg" xmlns:xlink="http://www.w3.org/1999/xlink">
    <!-- Generator: Sketch 52.5 (67469) - http://www.bohemiancoding.com/sketch -->
    <title>Group 3</title>
    <desc>Created with Sketch.</desc>
    <defs>
        <linearGradient x1="50.0267286%" y1="0%" x2="50%" y2="100%" id="linearGradient-1">
            <stop stop-color="#1EDDCF" offset="0%"></stop>
            <stop stop-color="#18B7B2" offset="47.1814638%"></stop>
            <stop stop-color="#118F94" offset="100%"></stop>
        </linearGradient>
        <linearGradient x1="0%" y1="0%" x2="0%" y2="47.3077401%" id="linearGradient-2">
            <stop stop-color="#1EDDCF" offset="0%"></stop>
            <stop stop-color="#1EDDCF" offset="100%"></stop>
            <stop stop-color="#1EDDCF" offset="100%"></stop>
            <stop stop-color="#17A79D" offset="100%"></stop>
        </linearGradient>
        <radialGradient cx="50%" cy="50%" fx="50%" fy="50%" r="50%" id="radialGradient-3">
            <stop stop-color="#1EDDCF" offset="0%"></stop>
            <stop stop-color="#18B7B2" offset="62.0405103%"></stop>
            <stop stop-color="#118F94" offset="100%"></stop>
        </radialGradient>
    </defs>
    <g id="Page-1" stroke="none" stroke-width="1" fill="none" fill-rule="evenodd">
        <g id="Artboard" transform="translate(-29.000000, -46.000000)">
            <g id="Group-3" transform="translate(29.000000, 46.000000)">
                <g id="Group">
                    <path d="M94.3884892,16.1538462 L136.978417,16.1538462 C143.335652,16.1538462 148.489209,21.3197913 148.489209,27.6923077 L148.489209,38.0769231 L10.3597122,38.0769231 L10.3597122,27.6923077 C10.3597122,21.3197913 15.5132691,16.1538462 21.8705036,16.1538462 L65.6115108,16.1538462 L65.6115108,0 L94.3884892,0 L94.3884892,16.1538462 Z M94.3884892,79.6153846 L94.3884892,160.384615 L160,160.384615 L160,181.189904 C160,187.56242 154.846443,192.728365 148.489209,192.728365 L11.5107914,192.728365 C5.15355684,192.728365 0,187.56242 0,181.189904 L0,160.384615 L65.6115108,160.384615 L65.6115108,79.6153846 L0,79.6153846 L0,58.8461538 C0,52.4736375 5.15355684,47.3076923 11.5107914,47.3076923 L148.489209,47.3076923 C154.846443,47.3076923 160,52.4736375 160,58.8461538 L160,79.6153846 L94.3884892,79.6153846 Z M65.3403141,224.242788 L22.4008437,224.242788 C16.0436092,224.242788 10.8900524,219.076843 10.8900524,212.704327 L10.8900524,201.850962 L149.109948,201.850962 L149.109948,212.704327 C149.109948,219.076843 143.956391,224.242788 137.599156,224.242788 L93.8219895,224.242788 L93.8219895,240 L65.3403141,240 L65.3403141,224.242788 Z" id="Shape" fill="url(#linearGradient-1)"></path>
                    <path d="M66.5740741,103.5 L95.8831303,103.5" id="Line-6" stroke="#FFFFFF" stroke-width="7" stroke-linecap="square"></path>
                    <path d="M66.5740741,118.5 L95.8831303,118.5" id="Line-6-Copy" stroke="#FFFFFF" stroke-width="7" stroke-linecap="square"></path>
                    <path d="M66.5740741,133.5 L95.8831303,133.5" id="Line-6-Copy-2" stroke="#FFFFFF" stroke-width="7" stroke-linecap="square"></path>
                </g>
                <text id="#1EDDCF" font-family="OpenSans-Bold, Open Sans" font-size="28" font-weight="bold" line-spacing="23" letter-spacing="-0.155555561" fill="#1EDDCF">
                    <tspan x="184" y="34">#1EDDC</tspan>
                    <tspan x="292.113542" y="34" letter-spacing="-0.161316872">F</tspan>
                </text>
                <text id="#118F94" font-family="OpenSans-Bold, Open Sans" font-size="28" font-weight="bold" line-spacing="40" letter-spacing="0.939999998" fill="#118F94">
                    <tspan x="190.496406" y="229">#118F9</tspan>
                    <tspan x="293.521172" y="229">4</tspan>
                </text>
                <path d="M200.5,51 L200.5,186" id="Line" stroke="url(#linearGradient-2)" stroke-width="10" stroke-linecap="square"></path>
                <text id="color-Fresh" font-family="OpenSans, Open Sans" font-size="20" font-weight="normal" letter-spacing="-0.11111109" fill="#118F94">
                    <tspan x="222.825629" y="155">color</tspan>
                    <tspan x="197.837348" y="182">         Fresh</tspan>
                </text>
                <rect id="Rectangle" fill="url(#radialGradient-3)" x="381" y="37" width="164" height="164" rx="82"></rect>
                <path d="M440.333681,109.46875 C436.255535,109.46875 434.216493,107.230491 434.216493,102.753906 C434.216493,100.527333 434.771175,98.8261778 435.880556,97.6503906 C436.989936,96.4746035 438.579764,95.8867188 440.650087,95.8867188 C442.165719,95.8867188 443.525081,96.1835908 444.728212,96.7773438 L443.673524,99.5429688 C443.111022,99.3164051 442.587589,99.1308601 442.103212,98.9863281 C441.618834,98.8417962 441.134464,98.7695312 440.650087,98.7695312 C438.790703,98.7695312 437.861024,100.089831 437.861024,102.730469 C437.861024,105.292982 438.790703,106.574219 440.650087,106.574219 C441.33759,106.574219 441.974303,106.482423 442.560243,106.298828 C443.146184,106.115233 443.732115,105.828127 444.318056,105.4375 L444.318056,108.496094 C443.739928,108.863283 443.155949,109.117187 442.566102,109.257812 C441.976256,109.398438 441.232123,109.46875 440.333681,109.46875 Z M450.078646,102.660156 C450.078646,103.957038 450.291534,104.937497 450.717318,105.601562 C451.143101,106.265628 451.836454,106.597656 452.797396,106.597656 C453.750526,106.597656 454.436066,106.267581 454.854037,105.607422 C455.272007,104.947262 455.48099,103.96485 455.48099,102.660156 C455.48099,101.363275 455.270054,100.390628 454.848177,99.7421875 C454.4263,99.0937468 453.734901,98.7695312 452.773958,98.7695312 C451.820829,98.7695312 451.133336,99.0917937 450.711458,99.7363281 C450.289581,100.380863 450.078646,101.355462 450.078646,102.660156 Z M459.13724,102.660156 C459.13724,104.792979 458.574745,106.460931 457.44974,107.664062 C456.324734,108.867194 454.758343,109.46875 452.750521,109.46875 C451.492702,109.46875 450.383338,109.193362 449.422396,108.642578 C448.461454,108.091794 447.72318,107.300786 447.207552,106.269531 C446.691925,105.238276 446.434115,104.035163 446.434115,102.660156 C446.434115,100.519521 446.992703,98.8554747 448.109896,97.6679688 C449.227089,96.4804628 450.797386,95.8867188 452.820833,95.8867188 C454.078652,95.8867188 455.188016,96.1601535 456.148958,96.7070312 C457.109901,97.253909 457.848175,98.0390574 458.363802,99.0625 C458.87943,100.085943 459.13724,101.285149 459.13724,102.660156 Z M465.542361,109.234375 L461.968142,109.234375 L461.968142,91 L465.542361,91 L465.542361,109.234375 Z M472.017795,102.660156 C472.017795,103.957038 472.230684,104.937497 472.656467,105.601562 C473.082251,106.265628 473.775603,106.597656 474.736545,106.597656 C475.689675,106.597656 476.375215,106.267581 476.793186,105.607422 C477.211157,104.947262 477.420139,103.96485 477.420139,102.660156 C477.420139,101.363275 477.209204,100.390628 476.787326,99.7421875 C476.365449,99.0937468 475.67405,98.7695312 474.713108,98.7695312 C473.759978,98.7695312 473.072485,99.0917937 472.650608,99.7363281 C472.228731,100.380863 472.017795,101.355462 472.017795,102.660156 Z M481.076389,102.660156 C481.076389,104.792979 480.513895,106.460931 479.388889,107.664062 C478.263883,108.867194 476.697493,109.46875 474.68967,109.46875 C473.431851,109.46875 472.322488,109.193362 471.361545,108.642578 C470.400603,108.091794 469.662329,107.300786 469.146701,106.269531 C468.631074,105.238276 468.373264,104.035163 468.373264,102.660156 C468.373264,100.519521 468.931852,98.8554747 470.049045,97.6679688 C471.166238,96.4804628 472.736535,95.8867188 474.759983,95.8867188 C476.017802,95.8867188 477.127165,96.1601535 478.088108,96.7070312 C479.04905,97.253909 479.787324,98.0390574 480.302951,99.0625 C480.818579,100.085943 481.076389,101.285149 481.076389,102.660156 Z M491.219792,95.8867188 C491.704169,95.8867188 492.106509,95.9218746 492.426823,95.9921875 L492.157292,99.34375 C491.868228,99.2656246 491.516669,99.2265625 491.102604,99.2265625 C489.961974,99.2265625 489.073311,99.5195283 488.436589,100.105469 C487.799867,100.691409 487.481511,101.511713 487.481511,102.566406 L487.481511,109.234375 L483.907292,109.234375 L483.907292,96.1328125 L486.614323,96.1328125 L487.141667,98.3359375 L487.317448,98.3359375 C487.7237,97.6015588 488.272523,97.0097679 488.963932,96.5605469 C489.655342,96.1113259 490.407288,95.8867188 491.219792,95.8867188 Z M414.574219,142.234375 L411,142.234375 L411,125.101562 L420.820312,125.101562 L420.820312,128.078125 L414.574219,128.078125 L414.574219,132.496094 L420.386719,132.496094 L420.386719,135.460938 L414.574219,135.460938 L414.574219,142.234375 Z M431.080903,128.886719 C431.56528,128.886719 431.96762,128.921875 432.287934,128.992188 L432.018403,132.34375 C431.729339,132.265625 431.37778,132.226562 430.963715,132.226562 C429.823085,132.226562 428.934422,132.519528 428.2977,133.105469 C427.660978,133.691409 427.342622,134.511713 427.342622,135.566406 L427.342622,142.234375 L423.768403,142.234375 L423.768403,129.132812 L426.475434,129.132812 L427.002778,131.335938 L427.178559,131.335938 C427.584811,130.601559 428.133634,130.009768 428.825043,129.560547 C429.516453,129.111326 430.268399,128.886719 431.080903,128.886719 Z M439.489931,131.429688 C438.732114,131.429688 438.13837,131.669919 437.708681,132.150391 C437.278991,132.630862 437.0329,133.312496 436.970399,134.195312 L441.986024,134.195312 C441.970399,133.312496 441.739933,132.630862 441.294618,132.150391 C440.849303,131.669919 440.247747,131.429688 439.489931,131.429688 Z M439.993837,142.46875 C437.884451,142.46875 436.23603,141.886725 435.048524,140.722656 C433.861018,139.558588 433.267274,137.910167 433.267274,135.777344 C433.267274,133.58202 433.816097,131.884772 434.913759,130.685547 C436.01142,129.486322 437.528983,128.886719 439.466493,128.886719 C441.318065,128.886719 442.759457,129.414057 443.790712,130.46875 C444.821967,131.523443 445.337587,132.980459 445.337587,134.839844 L445.337587,136.574219 L436.888368,136.574219 C436.927431,137.589849 437.228209,138.38281 437.790712,138.953125 C438.353215,139.52344 439.142269,139.808594 440.157899,139.808594 C440.946966,139.808594 441.693052,139.726563 442.396181,139.5625 C443.099309,139.398437 443.833677,139.136721 444.599306,138.777344 L444.599306,141.542969 C443.974302,141.85547 443.30634,142.08789 442.595399,142.240234 C441.884458,142.392579 441.017279,142.46875 439.993837,142.46875 Z M453.547396,131.429688 C452.78958,131.429688 452.195836,131.669919 451.766146,132.150391 C451.336456,132.630862 451.090365,133.312496 451.027865,134.195312 L456.04349,134.195312 C456.027865,133.312496 455.797398,132.630862 455.352083,132.150391 C454.906769,131.669919 454.305212,131.429688 453.547396,131.429688 Z M454.051302,142.46875 C451.941917,142.46875 450.293496,141.886725 449.10599,140.722656 C447.918484,139.558588 447.32474,137.910167 447.32474,135.777344 C447.32474,133.58202 447.873562,131.884772 448.971224,130.685547 C450.068886,129.486322 451.586449,128.886719 453.523958,128.886719 C455.37553,128.886719 456.816922,129.414057 457.848177,130.46875 C458.879432,131.523443 459.395052,132.980459 459.395052,134.839844 L459.395052,136.574219 L450.945833,136.574219 C450.984896,137.589849 451.285674,138.38281 451.848177,138.953125 C452.41068,139.52344 453.199735,139.808594 454.215365,139.808594 C455.004431,139.808594 455.750517,139.726563 456.453646,139.5625 C457.156774,139.398437 457.891142,139.136721 458.656771,138.777344 L458.656771,141.542969 C458.031768,141.85547 457.363806,142.08789 456.652865,142.240234 C455.941924,142.392579 455.074745,142.46875 454.051302,142.46875 Z M478.685764,137.476562 C478.685764,139.023445 478.129129,140.242183 477.015842,141.132812 C475.902555,142.023442 474.353743,142.46875 472.369358,142.46875 C470.541224,142.46875 468.924052,142.125003 467.517795,141.4375 L467.517795,138.0625 C468.674051,138.578128 469.652557,138.941405 470.453342,139.152344 C471.254127,139.363282 471.986542,139.46875 472.650608,139.46875 C473.447487,139.46875 474.058809,139.316408 474.484592,139.011719 C474.910376,138.70703 475.123264,138.253909 475.123264,137.652344 C475.123264,137.316405 475.029515,137.017579 474.842014,136.755859 C474.654513,136.494139 474.379125,136.242189 474.015842,136 C473.652559,135.757811 472.912332,135.371096 471.795139,134.839844 C470.748259,134.347654 469.96311,133.875002 469.43967,133.421875 C468.91623,132.968748 468.498266,132.441409 468.185764,131.839844 C467.873262,131.238278 467.717014,130.53516 467.717014,129.730469 C467.717014,128.214836 468.230681,127.023442 469.25803,126.15625 C470.285379,125.289058 471.705286,124.855469 473.517795,124.855469 C474.408425,124.855469 475.258026,124.960936 476.066623,125.171875 C476.875221,125.382814 477.720916,125.679686 478.603733,126.0625 L477.431858,128.886719 C476.517791,128.511717 475.761939,128.250001 475.16428,128.101562 C474.56662,127.953124 473.978736,127.878906 473.400608,127.878906 C472.713104,127.878906 472.185766,128.039061 471.818576,128.359375 C471.451387,128.679689 471.267795,129.097654 471.267795,129.613281 C471.267795,129.933595 471.342013,130.212889 471.490451,130.451172 C471.63889,130.689454 471.875216,130.919921 472.199436,131.142578 C472.523656,131.365235 473.291227,131.765622 474.50217,132.34375 C476.103741,133.109379 477.201386,133.876949 477.795139,134.646484 C478.388892,135.416019 478.685764,136.359369 478.685764,137.476562 Z M484.235417,135.660156 C484.235417,136.957038 484.448305,137.937497 484.874089,138.601562 C485.299872,139.265628 485.993224,139.597656 486.954167,139.597656 C487.907297,139.597656 488.592837,139.267581 489.010807,138.607422 C489.428778,137.947262 489.637761,136.96485 489.637761,135.660156 C489.637761,134.363275 489.426825,133.390628 489.004948,132.742188 C488.583071,132.093747 487.891672,131.769531 486.930729,131.769531 C485.9776,131.769531 485.290106,132.091794 484.868229,132.736328 C484.446352,133.380863 484.235417,134.355462 484.235417,135.660156 Z M493.294011,135.660156 C493.294011,137.792979 492.731516,139.460931 491.606511,140.664062 C490.481505,141.867194 488.915114,142.46875 486.907292,142.46875 C485.649473,142.46875 484.540109,142.193362 483.579167,141.642578 C482.618224,141.091794 481.879951,140.300786 481.364323,139.269531 C480.848695,138.238276 480.590886,137.035163 480.590886,135.660156 C480.590886,133.519521 481.149474,131.855475 482.266667,130.667969 C483.38386,129.480463 484.954157,128.886719 486.977604,128.886719 C488.235423,128.886719 489.344787,129.160154 490.305729,129.707031 C491.266672,130.253909 492.004945,131.039057 492.520573,132.0625 C493.036201,133.085943 493.294011,134.285149 493.294011,135.660156 Z M505.406163,142.234375 L504.925695,140.558594 L504.738195,140.558594 C504.35538,141.167972 503.812417,141.63867 503.109288,141.970703 C502.40616,142.302736 501.605387,142.46875 500.706945,142.46875 C499.167874,142.46875 498.00773,142.056645 497.226476,141.232422 C496.445222,140.408199 496.054601,139.222664 496.054601,137.675781 L496.054601,129.132812 L499.62882,129.132812 L499.62882,136.785156 C499.62882,137.730473 499.796787,138.439451 500.132726,138.912109 C500.468665,139.384768 501.003816,139.621094 501.738195,139.621094 C502.7382,139.621094 503.460849,139.287113 503.906163,138.619141 C504.351478,137.951169 504.574132,136.843758 504.574132,135.296875 L504.574132,129.132812 L508.148351,129.132812 L508.148351,142.234375 L505.406163,142.234375 Z M515.350347,142.234375 L511.776129,142.234375 L511.776129,124 L515.350347,124 L515.350347,142.234375 Z" id="color-Free-Soul" fill="#FFFFFF"></path>
                <text id="color-Vitality" font-family="OpenSans, Open Sans" font-size="20" font-weight="normal" letter-spacing="-0.11111109" fill="#1EDDCF">
                    <tspan x="221.825629" y="59">color</tspan>
                    <tspan x="191.364366" y="86">         Vitality</tspan>
                </text>
                <path d="M256.5,117 L268.014358,117" id="Line-7" stroke="#117D75" stroke-linecap="round"></path>
                <path d="M262.5,123 L262.5,111.5" id="Line-7-Copy" stroke="#117D75" stroke-linecap="round"></path>
                <g id="Group-2" transform="translate(338.000000, 113.000000)" stroke="#117D75" stroke-linecap="round">
                    <path d="M0.4,7 L11.328916,7" id="Line-7-Copy-2"></path>
                    <path d="M0.4,1 L11.328916,1" id="Line-7-Copy-3"></path>
                </g>
            </g>
        </g>
    </g>
</svg>