<svg xmlns="http://www.w3.org/2000/svg" viewBox="0 0 1756.5 542.72"><defs><style>.cls-1,.cls-10,.cls-11,.cls-12,.cls-13,.cls-15,.cls-16,.cls-18,.cls-20,.cls-8,.cls-9{fill:none;}.cls-1{stroke:#7ee;}.cls-1,.cls-10,.cls-11,.cls-12,.cls-13,.cls-15,.cls-16,.cls-17,.cls-18,.cls-20,.cls-9{stroke-miterlimit:10;}.cls-1,.cls-20,.cls-9{stroke-width:2.41px;}.cls-2{fill:#3c3c3b;}.cls-3{fill:#575756;}.cls-4{fill:#868686;}.cls-5{fill:#c39e6f;}.cls-6{fill:#bcbbac;}.cls-7{fill:#ececec;}.cls-10,.cls-9{stroke:#1e8f94;}.cls-10{stroke-width:2.39px;}.cls-11{stroke:#b2b2b2;}.cls-11,.cls-12,.cls-18{stroke-width:1.2px;}.cls-12,.cls-13,.cls-15,.cls-16,.cls-17,.cls-18{stroke:#ff521f;}.cls-12{stroke-dasharray:4.85 4.85;}.cls-13{stroke-width:1.75px;stroke-dasharray:7.07 7.07;}.cls-14,.cls-19{fill:#ff521f;}.cls-15{stroke-width:1.91px;stroke-dasharray:7.74 7.74;}.cls-16{stroke-width:1.33px;stroke-dasharray:5.37 5.37;}.cls-17{fill:#b2b2b2;}.cls-18{stroke-dasharray:4.81 4.81;}.cls-19{isolation:isolate;font-size:33.98px;font-family:OpenSans, Open Sans;}.cls-20{stroke:#b5bcbc;}.cls-21{fill:#1e8f94;}.cls-22,.cls-26{fill:#1eddcf;}.cls-22{opacity:0.62;}.cls-23,.cls-27{fill:#118f94;}.cls-23{opacity:0.64;}.cls-24{fill:#f2f2fc;}.cls-25{fill:#d8d8fc;}</style></defs><title>logo資產 4</title><g id="圖層_2" data-name="圖層 2"><g id="圖層_1-2" data-name="圖層 1"><rect class="cls-1" x="1.21" y="1.21" width="68.27" height="68.27"/><rect class="cls-1" x="68.64" y="1.21" width="68.27" height="68.27"/><rect class="cls-1" x="136.08" y="1.21" width="68.27" height="68.27"/><rect class="cls-1" x="203.51" y="1.21" width="68.27" height="68.27"/><rect class="cls-1" x="270.95" y="1.21" width="68.27" height="68.27"/><rect class="cls-1" x="338.37" y="1.21" width="68.27" height="68.27"/><rect class="cls-1" x="405.81" y="1.21" width="68.27" height="68.27"/><rect class="cls-1" x="473.24" y="1.21" width="68.27" height="68.27"/><rect class="cls-1" x="540.68" y="1.21" width="68.27" height="68.27"/><rect class="cls-1" x="608.11" y="1.21" width="68.27" height="68.27"/><rect class="cls-1" x="675.54" y="1.21" width="68.27" height="68.27"/><rect class="cls-1" x="742.98" y="1.21" width="68.27" height="68.27"/><rect class="cls-1" x="810.41" y="1.21" width="68.27" height="68.27"/><rect class="cls-1" x="877.85" y="1.21" width="68.27" height="68.27"/><rect class="cls-1" x="945.29" y="1.21" width="68.27" height="68.27"/><rect class="cls-1" x="1012.72" y="1.21" width="68.27" height="68.27"/><rect class="cls-1" x="1080.16" y="1.21" width="68.27" height="68.27"/><rect class="cls-1" x="1147.58" y="1.21" width="68.27" height="68.27"/><rect class="cls-1" x="1.21" y="68.64" width="68.27" height="68.27"/><rect class="cls-1" x="68.64" y="68.64" width="68.27" height="68.27"/><rect class="cls-1" x="136.08" y="68.64" width="68.27" height="68.27"/><rect class="cls-1" x="203.51" y="68.64" width="68.27" height="68.27"/><rect class="cls-1" x="270.95" y="68.64" width="68.27" height="68.27"/><rect class="cls-1" x="338.37" y="68.64" width="68.27" height="68.27"/><rect class="cls-1" x="405.81" y="68.64" width="68.27" height="68.27"/><rect class="cls-1" x="473.24" y="68.64" width="68.27" height="68.27"/><rect class="cls-1" x="540.68" y="68.64" width="68.27" height="68.27"/><rect class="cls-1" x="608.11" y="68.64" width="68.27" height="68.27"/><rect class="cls-1" x="675.54" y="68.64" width="68.27" height="68.27"/><rect class="cls-1" x="742.98" y="68.64" width="68.27" height="68.27"/><rect class="cls-1" x="810.41" y="68.64" width="68.27" height="68.27"/><rect class="cls-1" x="877.85" y="68.64" width="68.27" height="68.27"/><rect class="cls-1" x="945.29" y="68.64" width="68.27" height="68.27"/><rect class="cls-1" x="1012.72" y="68.64" width="68.27" height="68.27"/><rect class="cls-1" x="1080.16" y="68.64" width="68.27" height="68.27"/><rect class="cls-1" x="1147.58" y="68.64" width="68.27" height="68.27"/><rect class="cls-1" x="1.21" y="136.08" width="68.27" height="68.27"/><rect class="cls-1" x="68.64" y="136.08" width="68.27" height="68.27"/><rect class="cls-1" x="136.08" y="136.08" width="68.27" height="68.27"/><rect class="cls-1" x="203.51" y="136.08" width="68.27" height="68.27"/><rect class="cls-1" x="270.95" y="136.08" width="68.27" height="68.27"/><rect class="cls-1" x="338.37" y="136.08" width="68.27" height="68.27"/><rect class="cls-1" x="405.81" y="136.08" width="68.27" height="68.27"/><rect class="cls-1" x="473.24" y="136.08" width="68.27" height="68.27"/><rect class="cls-1" x="540.68" y="136.08" width="68.27" height="68.27"/><rect class="cls-1" x="608.11" y="136.08" width="68.27" height="68.27"/><rect class="cls-1" x="675.54" y="136.08" width="68.27" height="68.27"/><rect class="cls-1" x="742.98" y="136.08" width="68.27" height="68.27"/><rect class="cls-1" x="810.41" y="136.08" width="68.27" height="68.27"/><rect class="cls-1" x="877.85" y="136.08" width="68.27" height="68.27"/><rect class="cls-1" x="945.29" y="136.08" width="68.27" height="68.27"/><rect class="cls-1" x="1012.72" y="136.08" width="68.27" height="68.27"/><rect class="cls-1" x="1080.16" y="136.08" width="68.27" height="68.27"/><rect class="cls-1" x="1147.58" y="136.08" width="68.27" height="68.27"/><rect class="cls-1" x="1.21" y="203.51" width="68.27" height="68.27"/><rect class="cls-1" x="68.64" y="203.51" width="68.27" height="68.27"/><rect class="cls-1" x="136.08" y="203.51" width="68.27" height="68.27"/><rect class="cls-1" x="203.51" y="203.51" width="68.27" height="68.27"/><rect class="cls-1" x="270.95" y="203.51" width="68.27" height="68.27"/><rect class="cls-1" x="338.37" y="203.51" width="68.27" height="68.27"/><rect class="cls-1" x="405.81" y="203.51" width="68.27" height="68.27"/><rect class="cls-1" x="473.24" y="203.51" width="68.27" height="68.27"/><rect class="cls-1" x="540.68" y="203.51" width="68.27" height="68.27"/><rect class="cls-1" x="608.11" y="203.51" width="68.27" height="68.27"/><rect class="cls-1" x="675.54" y="203.51" width="68.27" height="68.27"/><rect class="cls-1" x="742.98" y="203.51" width="68.27" height="68.27"/><rect class="cls-1" x="810.41" y="203.51" width="68.27" height="68.27"/><rect class="cls-1" x="877.85" y="203.51" width="68.27" height="68.27"/><rect class="cls-1" x="945.29" y="203.51" width="68.27" height="68.27"/><rect class="cls-1" x="1012.72" y="203.51" width="68.27" height="68.27"/><rect class="cls-1" x="1080.16" y="203.51" width="68.27" height="68.27"/><rect class="cls-1" x="1147.58" y="203.51" width="68.27" height="68.27"/><rect class="cls-1" x="1.21" y="270.95" width="68.27" height="68.27"/><rect class="cls-1" x="68.64" y="270.95" width="68.27" height="68.27"/><rect class="cls-1" x="136.08" y="270.95" width="68.27" height="68.27"/><rect class="cls-1" x="203.51" y="270.95" width="68.27" height="68.27"/><rect class="cls-1" x="270.95" y="270.95" width="68.27" height="68.27"/><rect class="cls-1" x="338.37" y="270.95" width="68.27" height="68.27"/><rect class="cls-1" x="405.81" y="270.95" width="68.27" height="68.27"/><rect class="cls-1" x="473.24" y="270.95" width="68.27" height="68.27"/><rect class="cls-1" x="540.68" y="270.95" width="68.27" height="68.27"/><rect class="cls-1" x="608.11" y="270.95" width="68.27" height="68.27"/><rect class="cls-1" x="675.54" y="270.95" width="68.27" height="68.27"/><rect class="cls-1" x="742.98" y="270.95" width="68.27" height="68.27"/><rect class="cls-1" x="810.41" y="270.95" width="68.27" height="68.27"/><rect class="cls-1" x="877.85" y="270.95" width="68.27" height="68.27"/><rect class="cls-1" x="945.29" y="270.95" width="68.27" height="68.27"/><rect class="cls-1" x="1012.72" y="270.95" width="68.27" height="68.27"/><rect class="cls-1" x="1080.16" y="270.95" width="68.27" height="68.27"/><rect class="cls-1" x="1147.58" y="270.95" width="68.27" height="68.27"/><rect class="cls-1" x="1.21" y="338.37" width="68.27" height="68.27"/><rect class="cls-1" x="68.64" y="338.37" width="68.27" height="68.27"/><rect class="cls-1" x="136.08" y="338.37" width="68.27" height="68.27"/><rect class="cls-1" x="203.51" y="338.37" width="68.27" height="68.27"/><rect class="cls-1" x="270.95" y="338.37" width="68.27" height="68.27"/><rect class="cls-1" x="338.37" y="338.37" width="68.27" height="68.27"/><rect class="cls-1" x="405.81" y="338.37" width="68.27" height="68.27"/><rect class="cls-1" x="473.24" y="338.37" width="68.27" height="68.27"/><rect class="cls-1" x="540.68" y="338.37" width="68.27" height="68.27"/><rect class="cls-1" x="608.11" y="338.37" width="68.27" height="68.27"/><rect class="cls-1" x="675.54" y="338.37" width="68.27" height="68.27"/><rect class="cls-1" x="742.98" y="338.37" width="68.27" height="68.27"/><rect class="cls-1" x="810.41" y="338.37" width="68.27" height="68.27"/><rect class="cls-1" x="877.85" y="338.37" width="68.27" height="68.27"/><rect class="cls-1" x="945.29" y="338.37" width="68.27" height="68.27"/><rect class="cls-1" x="1012.72" y="338.37" width="68.27" height="68.27"/><rect class="cls-1" x="1080.16" y="338.37" width="68.27" height="68.27"/><rect class="cls-1" x="1147.58" y="338.37" width="68.27" height="68.27"/><rect class="cls-1" x="1.21" y="405.81" width="68.27" height="68.27"/><rect class="cls-1" x="68.64" y="405.81" width="68.27" height="68.27"/><rect class="cls-1" x="136.08" y="405.81" width="68.27" height="68.27"/><rect class="cls-1" x="203.51" y="405.81" width="68.27" height="68.27"/><rect class="cls-1" x="270.95" y="405.81" width="68.27" height="68.27"/><rect class="cls-1" x="338.37" y="405.81" width="68.27" height="68.27"/><rect class="cls-1" x="405.81" y="405.81" width="68.27" height="68.27"/><rect class="cls-1" x="473.24" y="405.81" width="68.27" height="68.27"/><rect class="cls-1" x="540.68" y="405.81" width="68.27" height="68.27"/><rect class="cls-1" x="608.11" y="405.81" width="68.27" height="68.27"/><rect class="cls-1" x="675.54" y="405.81" width="68.27" height="68.27"/><rect class="cls-1" x="742.98" y="405.81" width="68.27" height="68.27"/><rect class="cls-1" x="810.41" y="405.81" width="68.27" height="68.27"/><rect class="cls-1" x="877.85" y="405.81" width="68.27" height="68.27"/><rect class="cls-1" x="945.29" y="405.81" width="68.27" height="68.27"/><rect class="cls-1" x="1012.72" y="405.81" width="68.27" height="68.27"/><rect class="cls-1" x="1080.16" y="405.81" width="68.27" height="68.27"/><rect class="cls-1" x="1147.58" y="405.81" width="68.27" height="68.27"/><rect class="cls-1" x="1.21" y="473.24" width="68.27" height="68.27"/><rect class="cls-1" x="68.64" y="473.24" width="68.27" height="68.27"/><rect class="cls-1" x="136.08" y="473.24" width="68.27" height="68.27"/><rect class="cls-1" x="203.51" y="473.24" width="68.27" height="68.27"/><rect class="cls-1" x="270.95" y="473.24" width="68.27" height="68.27"/><rect class="cls-1" x="338.37" y="473.24" width="68.27" height="68.27"/><rect class="cls-1" x="405.81" y="473.24" width="68.27" height="68.27"/><rect class="cls-1" x="473.24" y="473.24" width="68.27" height="68.27"/><rect class="cls-1" x="540.68" y="473.24" width="68.27" height="68.27"/><rect class="cls-1" x="608.11" y="473.24" width="68.27" height="68.27"/><rect class="cls-1" x="675.54" y="473.24" width="68.27" height="68.27"/><rect class="cls-1" x="742.98" y="473.24" width="68.27" height="68.27"/><rect class="cls-1" x="810.41" y="473.24" width="68.27" height="68.27"/><rect class="cls-1" x="877.85" y="473.24" width="68.27" height="68.27"/><rect class="cls-1" x="945.29" y="473.24" width="68.27" height="68.27"/><rect class="cls-1" x="1012.72" y="473.24" width="68.27" height="68.27"/><rect class="cls-1" x="1080.16" y="473.24" width="68.27" height="68.27"/><rect class="cls-1" x="1147.58" y="473.24" width="68.27" height="68.27"/><rect class="cls-1" x="1215.02" y="1.21" width="68.27" height="68.27"/><rect class="cls-1" x="1215.02" y="68.64" width="68.27" height="68.27"/><rect class="cls-1" x="1215.02" y="136.08" width="68.27" height="68.27"/><rect class="cls-1" x="1215.02" y="203.51" width="68.27" height="68.27"/><rect class="cls-1" x="1215.02" y="270.95" width="68.27" height="68.27"/><rect class="cls-1" x="1215.02" y="338.37" width="68.27" height="68.27"/><rect class="cls-1" x="1215.02" y="405.81" width="68.27" height="68.27"/><rect class="cls-1" x="1215.02" y="473.24" width="68.27" height="68.27"/><rect class="cls-1" x="1282.45" y="1.21" width="68.27" height="68.27"/><rect class="cls-1" x="1282.45" y="68.64" width="68.27" height="68.27"/><rect class="cls-1" x="1282.45" y="136.08" width="68.27" height="68.27"/><rect class="cls-1" x="1282.45" y="203.51" width="68.27" height="68.27"/><rect class="cls-1" x="1282.45" y="270.95" width="68.27" height="68.27"/><rect class="cls-1" x="1282.45" y="338.37" width="68.27" height="68.27"/><rect class="cls-1" x="1282.45" y="405.81" width="68.27" height="68.27"/><rect class="cls-1" x="1282.45" y="473.24" width="68.27" height="68.27"/><rect class="cls-1" x="1349.88" y="1.21" width="68.27" height="68.27"/><rect class="cls-1" x="1349.88" y="68.64" width="68.27" height="68.27"/><rect class="cls-1" x="1349.88" y="136.08" width="68.27" height="68.27"/><rect class="cls-1" x="1349.88" y="203.51" width="68.27" height="68.27"/><rect class="cls-1" x="1349.88" y="270.95" width="68.27" height="68.27"/><rect class="cls-1" x="1349.88" y="338.37" width="68.27" height="68.27"/><rect class="cls-1" x="1349.88" y="405.81" width="68.27" height="68.27"/><rect class="cls-1" x="1349.88" y="473.24" width="68.27" height="68.27"/><rect class="cls-1" x="1417.31" y="1.21" width="68.27" height="68.27"/><rect class="cls-1" x="1417.31" y="68.64" width="68.27" height="68.27"/><rect class="cls-1" x="1417.31" y="136.08" width="68.27" height="68.27"/><rect class="cls-1" x="1417.31" y="203.51" width="68.27" height="68.27"/><rect class="cls-1" x="1417.31" y="270.95" width="68.27" height="68.27"/><rect class="cls-1" x="1417.31" y="338.37" width="68.27" height="68.27"/><rect class="cls-1" x="1417.31" y="405.81" width="68.27" height="68.27"/><rect class="cls-1" x="1417.31" y="473.24" width="68.27" height="68.27"/><rect class="cls-1" x="1484.74" y="1.21" width="68.27" height="68.27"/><rect class="cls-1" x="1484.74" y="68.64" width="68.27" height="68.27"/><rect class="cls-1" x="1484.74" y="136.08" width="68.27" height="68.27"/><rect class="cls-1" x="1484.74" y="203.51" width="68.27" height="68.27"/><rect class="cls-1" x="1484.74" y="270.95" width="68.27" height="68.27"/><rect class="cls-1" x="1484.74" y="338.37" width="68.27" height="68.27"/><rect class="cls-1" x="1484.74" y="405.81" width="68.27" height="68.27"/><rect class="cls-1" x="1484.74" y="473.24" width="68.27" height="68.27"/><rect class="cls-1" x="1552.17" y="1.21" width="68.27" height="68.27"/><rect class="cls-1" x="1552.17" y="68.64" width="68.27" height="68.27"/><rect class="cls-1" x="1552.17" y="136.08" width="68.27" height="68.27"/><rect class="cls-1" x="1552.17" y="203.51" width="68.27" height="68.27"/><rect class="cls-1" x="1552.17" y="270.95" width="68.27" height="68.27"/><rect class="cls-1" x="1552.17" y="338.37" width="68.27" height="68.27"/><rect class="cls-1" x="1552.17" y="405.81" width="68.27" height="68.27"/><rect class="cls-1" x="1552.17" y="473.24" width="68.27" height="68.27"/><rect class="cls-1" x="1619.6" y="1.21" width="68.27" height="68.27"/><rect class="cls-1" x="1619.6" y="68.64" width="68.27" height="68.27"/><rect class="cls-1" x="1619.6" y="136.08" width="68.27" height="68.27"/><rect class="cls-1" x="1619.6" y="203.51" width="68.27" height="68.27"/><rect class="cls-1" x="1619.6" y="270.95" width="68.27" height="68.27"/><rect class="cls-1" x="1619.6" y="338.37" width="68.27" height="68.27"/><rect class="cls-1" x="1619.6" y="405.81" width="68.27" height="68.27"/><rect class="cls-1" x="1619.6" y="473.24" width="68.27" height="68.27"/><rect class="cls-1" x="1687.03" y="1.21" width="68.27" height="68.27"/><rect class="cls-1" x="1687.03" y="68.64" width="68.27" height="68.27"/><rect class="cls-1" x="1687.03" y="136.08" width="68.27" height="68.27"/><rect class="cls-1" x="1687.03" y="203.51" width="68.27" height="68.27"/><rect class="cls-1" x="1687.03" y="270.95" width="68.27" height="68.27"/><rect class="cls-1" x="1687.03" y="338.37" width="68.27" height="68.27"/><rect class="cls-1" x="1687.03" y="405.81" width="68.27" height="68.27"/><rect class="cls-1" x="1687.03" y="473.24" width="68.27" height="68.27"/><path class="cls-2" d="M313.75,185.16c27,26.23,5.35,46.93,5.35,46.93l-40.39-31.21L260.06,222l-17.31-15.27,17.66-20,10.51-11.92a20.53,20.53,0,0,1,29-1.9l0,0Z"/><path class="cls-3" d="M263.19,210.16l13.7-15.52a1.82,1.82,0,0,1,2.47-.25l37.11,28.68a1.82,1.82,0,0,0,2.55-.31,2.9,2.9,0,0,0,.19-.29,23,23,0,0,0,2.58-10.37c0-7.57-4-15.3-11.89-23L299.57,180a19.47,19.47,0,0,0-27.47,1.77v0l-19.33,21.91a1.82,1.82,0,0,0,.14,2.57,1.85,1.85,0,0,0,.37.25l7.71,4A1.81,1.81,0,0,0,263.19,210.16Z"/><polygon class="cls-2" points="253.49 235.46 283.51 262.04 310.34 242.02 272.91 213.44 253.49 235.46"/><path class="cls-3" d="M297,238.74l-20.34-15.53a4,4,0,0,0-5.48.55l-7.19,8.16a4,4,0,0,0,.27,5.65l.06.05,17.15,15.15a4,4,0,0,0,5.09.2l10.42-7.78a4,4,0,0,0,.87-5.59A4.08,4.08,0,0,0,297,238.74Z"/><polygon class="cls-2" points="137.3 343.92 155.91 358.15 276.46 241.55 260.5 229.35 137.3 343.92"/><path class="cls-4" d="M241,204.78,224.26,223l-36,41.19-58.56,66.9c-1.39,1.54-.12,4.81,2.84,7.3l.66.55c2.94,2.48,6.48,3.28,7.93,1.79l65.5-66.08L242.94,238l5.09-5.53c1.17-1.28,3.87-1,6.56.7l32.06,20.19c2.7,1.68,5.39,2,6.57.69l4.45-4.83c1.31-1.42.32-4.38-2.27-6.83l-20.56-19.49a13.68,13.68,0,0,0-2-1.57l-25.28-15.88C244.87,203.76,242.19,203.47,241,204.78Z"/><path class="cls-3" d="M280.84,241.71a3.9,3.9,0,1,0,5.51-.36A3.91,3.91,0,0,0,280.84,241.71Z"/><path class="cls-3" d="M264.23,225.7a3.9,3.9,0,1,0,5.51-.36A3.91,3.91,0,0,0,264.23,225.7Z"/><rect class="cls-5" x="189.46" y="165.83" width="28.19" height="217.42" transform="translate(-137.46 251.8) rotate(-49.63)"/><path class="cls-6" d="M137,242.86c-7.42,3.34-9.36,11.32-7.84,22.23L95.26,236.28c12.4-1.95,18.87-5.86,20.68-11.32Z"/><path class="cls-7" d="M129.15,265.09,109.33,288.4a81.54,81.54,0,0,1-33.91-28.81l19.81-23.31Z"/><rect class="cls-4" x="87.01" y="240.09" width="30.59" height="44.48" transform="translate(-163.82 170.36) rotate(-49.63)"/><path class="cls-6" d="M131.63,191.32l17.11,14.54,6.62-7.78C170.71,180,196.62,170.47,216,181.47l7.16,4.09,3.27-4.06-7.48-6.36c-23.57-20-60-15.9-81.41,9.26Z"/><path class="cls-4" d="M167.53,222.14l-19.31,22.71c-4.83,5.69-14.22,5.65-21-.08l-11.63-9.9c-6.74-5.73-8.29-15-3.45-20.67l19.35-22.73c4.83-5.68,14.21-5.64,21,.09l11.59,9.91C170.82,207.2,172.36,216.47,167.53,222.14Z"/><path class="cls-6" d="M143.64,241c-2.45,2.88-8.16,2.38-12.22-1.08L119.78,230c-4.06-3.46-5.48-9-3-11.89l19.32-22.72c2.45-2.88,8.16-2.37,12.22,1.08L160,206.35c4.06,3.46,5.47,9,3,11.9Z"/><line class="cls-8" x1="1504.08" y1="189.06" x2="1501.67" y2="230"/><rect class="cls-9" x="1417.38" y="136.08" width="269.74" height="269.74" rx="51.24"/><path class="cls-9" d="M1485,218h93.29A19.73,19.73,0,0,1,1598,237.73v23.63H1485V218Z"/><rect class="cls-10" x="1484.97" y="270.94" width="48.01" height="134.87"/><path class="cls-9" d="M1484.82,184.25h59A10.8,10.8,0,0,1,1554.7,195v13.3h-69.88v-24Z"/><line class="cls-11" x1="1452.3" y1="183.95" x2="1452.3" y2="186.36"/><line class="cls-12" x1="1452.3" y1="191.2" x2="1452.3" y2="402.34"/><line class="cls-13" x1="1552.13" y1="208.29" x2="1485.94" y2="208.29"/><rect class="cls-14" x="1551.26" y="202.6" width="1.75" height="11.37"/><rect class="cls-14" x="1485.07" y="202.6" width="1.75" height="11.37"/><line class="cls-15" x1="1597.05" y1="265.03" x2="1485.69" y2="265.03"/><rect class="cls-14" x="1596.09" y="258.81" width="1.91" height="12.44"/><rect class="cls-14" x="1484.74" y="258.81" width="1.91" height="12.44"/><line class="cls-16" x1="1425.57" y1="415.39" x2="1693.3" y2="415.39"/><rect class="cls-14" x="1424.91" y="411.07" width="1.33" height="8.64"/><rect class="cls-14" x="1692.63" y="411.07" width="1.33" height="8.64"/><line class="cls-16" x1="1699.52" y1="406.24" x2="1699.52" y2="138.51"/><rect class="cls-14" x="1695.2" y="405.57" width="8.64" height="1.33"/><rect class="cls-14" x="1695.2" y="137.85" width="8.64" height="1.33"/><line class="cls-11" x1="1452.3" y1="404.77" x2="1452.3" y2="407.18"/><rect class="cls-17" x="1448.39" y="183.34" width="7.83" height="1.2"/><rect class="cls-17" x="1448.39" y="406.58" width="7.83" height="1.2"/><line class="cls-11" x1="1469.16" y1="272.39" x2="1469.16" y2="274.8"/><line class="cls-18" x1="1469.16" y1="279.59" x2="1469.16" y2="402.21"/><line class="cls-11" x1="1469.16" y1="404.61" x2="1469.16" y2="407.02"/><rect class="cls-17" x="1465.25" y="271.77" width="7.83" height="1.2"/><rect class="cls-17" x="1465.25" y="406.42" width="7.83" height="1.2"/><text class="cls-19" transform="translate(1559.43 127.58)">1 : 1.618</text><polygon class="cls-20" points="470.26 261.31 442.19 261.31 442.19 231.59 431.72 231.59 431.72 261.31 402.82 261.31 402.82 271.77 431.72 271.77 431.72 299.02 442.19 299.02 442.19 271.77 470.26 271.77 470.26 261.31"/><polygon class="cls-20" points="877.87 261.31 849.8 261.31 849.8 231.59 839.33 231.59 839.33 261.31 810.43 261.31 810.43 271.77 839.33 271.77 839.33 299.02 849.8 299.02 849.8 271.77 877.87 271.77 877.87 261.31"/><path class="cls-21" d="M1010.57,204.34h66.6V218.9h-52.71v45.15h44.61v14.49h-44.61v59.83h-13.89Z"/><rect class="cls-20" x="1255.74" y="256.61" width="52.25" height="9.39"/><rect class="cls-20" x="1255.55" y="271.77" width="52.25" height="9.39"/><rect class="cls-22" x="559.3" y="288.28" width="35.54" height="71.09" transform="translate(-53.59 524.17) rotate(-46.92)"/><rect class="cls-23" x="572.28" y="318.19" width="35.54" height="35.54" transform="translate(-58.35 537.5) rotate(-46.92)"/><rect class="cls-24" x="566.55" y="246.79" width="142.96" height="23.7" transform="translate(13.35 548.03) rotate(-46.92)"/><rect class="cls-25" x="570.88" y="256.76" width="142.96" height="11.85" transform="translate(11.77 552.47) rotate(-46.92)"/><rect class="cls-26" x="577.36" y="263.46" width="23.7" height="94.78" transform="translate(-40.27 528.92) rotate(-46.92)"/><rect class="cls-27" x="594.67" y="303.34" width="23.7" height="47.39" transform="translate(-46.6 546.69) rotate(-46.92)"/><rect class="cls-22" x="673.13" y="166.55" width="35.54" height="71.09" transform="translate(71.41 568.72) rotate(-46.92)"/><rect class="cls-23" x="686.11" y="196.46" width="35.54" height="35.54" transform="translate(66.66 582.05) rotate(-46.92)"/><rect class="cls-26" x="666.91" y="167.68" width="23.7" height="94.78" transform="translate(58.08 563.97) rotate(-46.92)"/><rect class="cls-27" x="684.22" y="207.56" width="23.7" height="47.39" transform="translate(51.74 581.74) rotate(-46.92)"/></g></g></svg>